<?xml version="1.0" encoding="utf-8" ?>
<svg xmlns="http://www.w3.org/2000/svg" xmlns:xlink="http://www.w3.org/1999/xlink" width="500" height="500">
	<path fill="#103D68" transform="scale(0.488281 0.488281)" d="M518.842 983.251C489.496 983.101 460.527 981.107 431.57 976.139Q427.215 975.375 422.875 974.53Q418.536 973.685 414.212 972.76Q409.889 971.834 405.583 970.829Q401.277 969.824 396.991 968.739Q392.705 967.655 388.439 966.491Q384.174 965.327 379.931 964.084Q375.688 962.842 371.468 961.52Q367.249 960.199 363.055 958.8Q358.861 957.401 354.693 955.925Q350.525 954.448 346.386 952.895Q342.246 951.342 338.136 949.712Q334.026 948.082 329.947 946.376Q325.868 944.671 321.821 942.89Q317.775 941.109 313.761 939.253Q309.748 937.398 305.77 935.468Q301.792 933.539 297.85 931.536Q293.909 929.533 290.005 927.457Q286.101 925.382 282.236 923.234Q278.371 921.087 274.547 918.868Q270.723 916.649 266.94 914.36Q263.158 912.071 259.418 909.712Q255.678 907.353 251.983 904.925Q248.288 902.498 244.638 900.002Q240.989 897.506 237.386 894.943Q233.783 892.38 230.229 889.751Q226.674 887.122 223.169 884.427Q219.663 881.732 216.208 878.973Q212.754 876.214 209.35 873.392Q205.947 870.569 202.597 867.684Q199.247 864.799 195.95 861.852Q192.654 858.905 189.413 855.898Q186.172 852.891 182.987 849.824Q178.733 845.779 174.581 841.629Q170.429 837.479 166.381 833.227Q162.333 828.976 158.392 824.625Q154.452 820.273 150.62 815.826Q146.789 811.378 143.069 806.836Q139.35 802.295 135.744 797.662Q132.139 793.03 128.649 788.309Q125.16 783.588 121.789 778.782Q118.418 773.976 115.168 769.087Q111.918 764.199 108.79 759.231Q105.662 754.263 102.659 749.219Q99.6557 744.175 96.7788 739.058Q93.9018 733.941 91.153 728.754Q88.4042 723.567 85.7851 718.313Q83.1661 713.059 80.6785 707.742Q78.1909 702.425 75.8363 697.047Q73.4816 691.67 71.2614 686.236Q69.0412 680.801 66.9567 675.313Q64.8723 669.826 62.925 664.288Q60.9776 658.75 59.1686 653.165Q57.3595 647.58 55.6898 641.952Q54.0202 636.324 52.4909 630.656Q50.9617 624.989 49.5739 619.285Q48.186 613.581 46.9404 607.844Q45.6948 602.107 44.5922 596.342Q43.4896 590.576 42.5307 584.784Q41.5718 578.993 40.7572 573.179Q39.9425 567.365 39.2727 561.533Q38.6029 555.701 38.0782 549.854Q37.5536 544.007 37.1745 538.149Q36.7954 532.291 36.562 526.425Q36.3287 520.56 36.2412 514.69Q36.1405 508.793 36.1847 502.896Q36.2289 496.998 36.4181 491.104Q36.6073 485.209 36.9413 479.321Q37.2753 473.433 37.7539 467.555Q38.2326 461.677 38.8555 455.812Q39.4785 449.948 40.2454 444.1Q41.0124 438.253 41.9228 432.426Q42.8332 426.599 43.8866 420.796Q44.94 414.993 46.1356 409.218Q47.3313 403.443 48.6686 397.699Q50.0058 391.955 51.4839 386.246Q52.9619 380.536 54.5799 374.865Q56.1978 369.194 57.9547 363.564Q59.7115 357.934 61.6062 352.349Q63.5009 346.764 65.5323 341.227Q67.5637 335.691 69.7305 330.206Q71.8974 324.72 74.1984 319.29Q76.4995 313.86 78.9333 308.488Q81.3671 303.116 83.9322 297.806Q86.4973 292.495 89.1922 287.249Q91.887 282.003 94.71 276.825Q97.533 271.647 100.482 266.54Q103.432 261.433 106.506 256.4Q109.58 251.367 112.777 246.411Q115.974 241.455 119.291 236.579Q122.609 231.703 126.046 226.91Q129.482 222.117 133.035 217.41Q136.589 212.703 140.257 208.085Q143.924 203.467 147.705 198.94Q151.485 194.413 155.376 189.981Q159.266 185.549 163.264 181.213Q167.262 176.878 171.366 172.642Q175.443 168.468 179.62 164.395Q183.798 160.323 188.074 156.354Q192.35 152.384 196.722 148.521Q201.094 144.658 205.559 140.903Q210.025 137.148 214.581 133.504Q219.137 129.86 223.781 126.328Q228.425 122.797 233.154 119.38Q237.884 115.963 242.695 112.663Q247.506 109.364 252.397 106.183Q257.288 103.002 262.256 99.9416Q267.223 96.8815 272.264 93.944Q277.305 91.0066 282.416 88.1935Q287.527 85.3804 292.706 82.6935Q297.885 80.0065 303.128 77.4472Q308.371 74.888 313.675 72.4579Q318.979 70.0279 324.341 67.7286Q329.703 65.4293 335.12 63.262Q340.537 61.0948 346.005 59.061Q351.474 57.0271 356.99 55.1279Q362.507 53.2286 368.068 51.4651Q373.63 49.7016 379.233 48.075Q384.836 46.4483 390.477 44.9594Q396.118 43.4705 401.794 42.1203Q407.47 40.77 413.177 39.5593Q418.884 38.3486 424.619 37.2781Q430.355 36.2075 436.114 35.2779Q441.874 34.3482 447.655 33.56Q453.436 32.7718 459.234 32.1254Q465.033 31.4791 470.845 30.975Q476.658 30.4709 482.481 30.1094Q488.304 29.7479 494.134 29.5292Q499.964 29.3106 505.798 29.2348L506.811 29.204C518.745 28.8899 530.979 29.6068 542.898 30.36Q547.982 30.6981 553.058 31.1451Q558.134 31.5922 563.199 32.1479Q568.264 32.7035 573.316 33.3677Q578.368 34.0318 583.404 34.804Q588.441 35.5762 593.46 36.4562Q598.479 37.3362 603.478 38.3235Q608.476 39.3109 613.453 40.4051Q618.429 41.4993 623.381 42.7Q628.333 43.9006 633.258 45.2071Q638.183 46.5136 643.079 47.9253Q647.975 49.337 652.84 50.8534Q657.704 52.3697 662.535 53.9899Q667.366 55.6102 672.161 57.3336Q676.957 59.057 681.714 60.8827Q686.471 62.7085 691.188 64.6358Q695.905 66.5631 700.579 68.591Q705.254 70.6189 709.884 72.7466Q714.514 74.8742 719.097 77.1006Q723.68 79.327 728.215 81.6511Q732.749 83.9751 737.233 86.3959Q741.716 88.8166 746.147 91.3329Q750.578 93.8491 754.954 96.4598Q759.33 99.0704 763.648 101.774Q767.967 104.478 772.227 107.274Q776.487 110.07 780.686 112.956Q784.885 115.842 789.022 118.818Q793.158 121.794 797.229 124.858Q801.301 127.921 805.306 131.071Q809.311 134.222 813.247 137.457Q817.184 140.692 821.05 144.011Q824.916 147.33 828.71 150.731Q832.505 154.132 836.225 157.614C936.663 253.308 984.714 369.074 987.902 507.308C990.696 628.469 937.196 750.293 854.049 837.102Q849.987 841.333 845.822 845.462Q841.656 849.591 837.391 853.616Q833.125 857.642 828.761 861.56Q824.398 865.479 819.939 869.289Q815.48 873.099 810.928 876.798Q806.376 880.497 801.735 884.083Q797.094 887.668 792.365 891.138Q787.637 894.608 782.824 897.961Q778.011 901.313 773.118 904.546Q768.224 907.778 763.252 910.89Q758.28 914 753.233 916.988Q748.186 919.975 743.066 922.838Q737.947 925.7 732.759 928.435Q727.57 931.17 722.316 933.776Q717.062 936.382 711.745 938.858Q706.428 941.334 701.052 943.678Q695.676 946.022 690.243 948.233Q684.811 950.444 679.326 952.52Q673.84 954.596 668.305 956.536Q662.77 958.476 657.189 960.28Q651.608 962.083 645.985 963.748Q640.361 965.413 634.698 966.939Q629.035 968.464 623.336 969.85Q617.637 971.236 611.905 972.481Q606.174 973.725 600.413 974.829Q594.653 975.932 588.867 976.892Q583.081 977.853 577.273 978.671Q571.466 979.488 565.639 980.163Q559.813 980.837 553.972 981.367Q548.131 981.898 542.279 982.284Q536.426 982.67 530.566 982.912Q524.706 983.154 518.842 983.251ZM947.168 418.065C943.429 403.929 940.351 389.711 936.16 375.675Q933.976 368.379 931.538 361.164Q929.099 353.949 926.409 346.825Q923.719 339.7 920.78 332.674Q917.841 325.648 914.657 318.73Q911.473 311.812 908.048 305.01Q904.623 298.208 900.962 291.53Q897.3 284.852 893.406 278.307Q889.512 271.762 885.391 265.358Q882.865 261.451 880.259 257.597Q877.652 253.743 874.966 249.944Q872.28 246.145 869.516 242.403Q866.751 238.661 863.91 234.977Q861.069 231.292 858.151 227.668Q855.234 224.044 852.242 220.481Q849.251 216.918 846.185 213.418Q843.12 209.917 839.983 206.482Q836.846 203.046 833.638 199.676Q830.43 196.306 827.153 193.004Q823.876 189.701 820.531 186.467Q817.186 183.233 813.775 180.07Q810.364 176.906 806.887 173.814Q803.411 170.721 799.871 167.702Q796.332 164.683 792.73 161.737Q789.128 158.792 785.466 155.922Q781.804 153.052 778.084 150.259Q774.363 147.466 770.585 144.751Q766.807 142.035 762.973 139.399Q759.14 136.762 755.252 134.206Q751.365 131.65 747.425 129.175Q743.486 126.7 739.496 124.307Q735.506 121.915 731.467 119.605Q727.428 117.296 723.342 115.071Q719.256 112.846 715.124 110.707Q710.993 108.567 706.818 106.513Q702.643 104.46 698.426 102.494Q694.21 100.527 689.953 98.6489Q685.697 96.7705 681.402 94.9809Q677.108 93.1913 672.777 91.4912Q668.446 89.7911 664.081 88.1813Q659.716 86.5715 655.318 85.0526C640.099 79.7681 624.578 74.861 608.822 71.4406Q603.502 70.2472 598.153 69.1855Q592.805 68.1238 587.432 67.1943Q582.06 66.2649 576.666 65.4684Q571.271 64.6718 565.859 64.0086Q560.447 63.3454 555.02 62.816Q549.594 62.2866 544.156 61.8912Q538.717 61.4959 533.271 61.2349Q527.825 60.9738 522.373 60.8473Q516.922 60.7208 511.47 60.7288Q506.017 60.7368 500.566 60.8794Q495.116 61.022 489.67 61.299Q484.225 61.5761 478.788 61.9874Q473.351 62.3987 467.925 62.9441Q462.5 63.4895 457.09 64.1686Q451.68 64.8478 446.288 65.6602Q440.896 66.4726 435.526 67.4178Q430.156 68.363 424.811 69.4405Q419.466 70.518 414.149 71.727Q408.833 72.936 403.547 74.2759Q398.262 75.6158 393.011 77.0857Q387.76 78.5556 382.547 80.1546Q377.335 81.7536 372.163 83.4808Q366.991 85.208 361.863 87.0623Q356.736 88.9166 351.656 90.8968Q346.575 92.8771 341.545 94.9821Q336.516 97.0871 331.539 99.3157Q326.563 101.544 321.643 103.895Q316.723 106.245 311.863 108.717Q307.002 111.188 302.204 113.779Q297.407 116.369 292.674 119.077Q287.942 121.785 283.277 124.61Q278.613 127.434 274.02 130.372Q270.063 132.887 266.16 135.486Q262.258 138.084 258.411 140.764Q254.564 143.444 250.774 146.205Q246.985 148.966 243.254 151.806Q239.524 154.646 235.854 157.565Q232.185 160.483 228.577 163.478Q224.97 166.473 221.427 169.544Q217.884 172.615 214.407 175.76Q210.929 178.905 207.519 182.122Q204.109 185.34 200.767 188.629Q197.426 191.918 194.155 195.277Q190.883 198.635 187.684 202.062Q184.484 205.49 181.357 208.983Q178.231 212.477 175.179 216.037Q172.127 219.596 169.151 223.219Q166.174 226.841 163.275 230.526Q160.376 234.211 157.556 237.957Q154.735 241.702 151.994 245.506Q149.254 249.31 146.594 253.171Q143.934 257.032 141.356 260.948Q138.778 264.865 136.284 268.835Q133.79 272.805 131.379 276.826Q128.969 280.848 126.645 284.92Q124.32 288.992 122.082 293.112Q119.844 297.232 117.694 301.398Q115.543 305.564 113.481 309.775Q111.419 313.986 109.446 318.239Q107.474 322.492 105.591 326.787Q103.709 331.081 101.918 335.414Q100.126 339.746 98.4269 344.116Q96.7276 348.486 95.1208 352.891Q93.5141 357.295 92.0008 361.733C85.7079 380.177 80.9611 398.865 76.8314 417.89C72.0428 446.311 68.4459 474.697 68.0164 503.562Q67.9592 507.818 67.9859 512.074Q68.0126 516.33 68.123 520.585Q68.2335 524.84 68.4278 529.092Q68.622 533.344 68.9 537.591Q69.178 541.838 69.5395 546.079Q69.9011 550.32 70.3461 554.553Q70.7911 558.786 71.3194 563.009Q71.8477 567.233 72.459 571.445Q73.0704 575.657 73.7646 579.856Q74.4588 584.055 75.2356 588.24Q76.0124 592.425 76.8714 596.594Q77.7304 600.762 78.6714 604.913Q79.6124 609.064 80.635 613.196Q81.6575 617.327 82.7612 621.438Q83.865 625.549 85.0494 629.637Q86.2339 633.725 87.4986 637.789Q88.7634 641.853 90.108 645.891Q91.4525 649.93 92.8763 653.941Q94.3001 657.952 95.8027 661.934Q97.3052 665.916 98.8859 669.868Q100.467 673.82 102.125 677.74Q103.783 681.66 105.518 685.546Q107.253 689.433 109.065 693.285Q110.876 697.136 112.763 700.951Q114.649 704.767 116.611 708.544Q118.573 712.321 120.608 716.059Q122.644 719.797 124.753 723.494Q126.861 727.191 129.043 730.846Q131.224 734.501 133.477 738.112Q135.729 741.724 138.053 745.29Q140.376 748.856 142.77 752.375Q145.163 755.895 147.625 759.367C217.398 857.272 320.663 925.279 439.872 945.228Q445.216 946.132 450.581 946.904Q455.946 947.675 461.328 948.313Q466.71 948.951 472.107 949.455Q477.503 949.96 482.911 950.33Q488.318 950.7 493.733 950.937Q499.148 951.173 504.567 951.274Q509.986 951.376 515.406 951.344Q520.825 951.311 526.243 951.144Q531.66 950.977 537.072 950.675Q542.484 950.374 547.886 949.938Q553.288 949.503 558.678 948.934Q564.068 948.364 569.443 947.661Q574.817 946.958 580.172 946.122Q585.527 945.286 590.86 944.318Q596.193 943.349 601.5 942.249Q606.807 941.149 612.085 939.917Q617.363 938.685 622.609 937.323Q627.855 935.96 633.066 934.469Q638.276 932.977 643.448 931.356Q648.62 929.735 653.75 927.987Q658.881 926.238 663.966 924.363Q669.051 922.488 674.088 920.487Q679.125 918.486 684.112 916.361Q689.098 914.236 694.029 911.988Q698.961 909.74 703.836 907.37Q708.71 905 713.524 902.51Q718.339 900.021 723.09 897.412Q727.841 894.804 732.526 892.078Q737.21 889.353 741.826 886.512Q746.442 883.671 750.986 880.716Q755.53 877.762 759.999 874.695Q764.468 871.629 768.86 868.453Q773.316 865.274 777.693 861.988Q782.07 858.701 786.366 855.309Q790.661 851.916 794.872 848.42Q799.084 844.923 803.208 841.325Q807.333 837.727 811.368 834.029Q815.404 830.331 819.348 826.535Q823.292 822.74 827.142 818.849Q830.992 814.958 834.746 810.975Q838.5 806.991 842.155 802.917Q845.811 798.843 849.365 794.681Q852.92 790.519 856.372 786.271Q859.824 782.024 863.172 777.693Q866.519 773.362 869.76 768.951Q873 764.539 876.132 760.05Q879.264 755.561 882.285 750.997Q885.306 746.433 888.215 741.796Q891.124 737.159 893.918 732.453Q896.713 727.746 899.392 722.973Q902.071 718.2 904.632 713.363Q907.194 708.525 909.636 703.627Q912.079 698.729 914.401 693.772Q916.723 688.815 918.923 683.804Q921.124 678.792 923.201 673.728Q925.278 668.664 927.231 663.55Q929.184 658.437 931.011 653.277Q932.839 648.118 934.54 642.915Q936.241 637.713 937.814 632.47Q939.387 627.227 940.832 621.948Q942.277 616.668 943.592 611.355Q944.907 606.042 946.093 600.698Q947.278 595.354 948.332 589.983Q949.386 584.612 950.309 579.217Q951.513 571.846 952.466 564.438Q953.419 557.031 954.12 549.595Q954.821 542.159 955.27 534.704Q955.718 527.249 955.914 519.782Q956.109 512.316 956.051 504.848Q955.993 497.379 955.682 489.917Q955.37 482.455 954.806 475.007Q954.242 467.56 953.425 460.136C951.869 446.026 949.366 432.08 947.168 418.065Z"/>
	<path fill="#F6F7F8" transform="scale(0.488281 0.488281)" d="M76.8314 417.89C80.9611 398.865 85.7079 380.177 92.0008 361.733Q93.5141 357.295 95.1208 352.891Q96.7276 348.486 98.4269 344.116Q100.126 339.746 101.918 335.414Q103.709 331.081 105.591 326.787Q107.474 322.492 109.446 318.239Q111.419 313.986 113.481 309.775Q115.543 305.564 117.694 301.398Q119.844 297.232 122.082 293.112Q124.32 288.992 126.645 284.92Q128.969 280.848 131.379 276.826Q133.79 272.805 136.284 268.835Q138.778 264.865 141.356 260.948Q143.934 257.032 146.594 253.171Q149.254 249.31 151.994 245.506Q154.735 241.702 157.556 237.957Q160.376 234.211 163.275 230.526Q166.174 226.841 169.151 223.219Q172.127 219.596 175.179 216.037Q178.231 212.477 181.357 208.983Q184.484 205.49 187.684 202.062Q190.883 198.635 194.155 195.277Q197.426 191.918 200.767 188.629Q204.109 185.34 207.519 182.122Q210.929 178.905 214.407 175.76Q217.884 172.615 221.427 169.544Q224.97 166.473 228.577 163.478Q232.185 160.483 235.854 157.565Q239.524 154.646 243.254 151.806Q246.985 148.966 250.774 146.205Q254.564 143.444 258.411 140.764Q262.258 138.084 266.16 135.486Q270.063 132.887 274.02 130.372Q278.613 127.434 283.277 124.61Q287.942 121.785 292.674 119.077Q297.407 116.369 302.204 113.779Q307.002 111.188 311.863 108.717Q316.723 106.245 321.643 103.895Q326.563 101.544 331.539 99.3156Q336.516 97.0871 341.545 94.9821Q346.575 92.8771 351.656 90.8968Q356.736 88.9165 361.863 87.0623Q366.991 85.208 372.163 83.4808Q377.335 81.7536 382.547 80.1546Q387.76 78.5556 393.011 77.0857Q398.262 75.6158 403.547 74.2759Q408.833 72.936 414.149 71.727Q419.466 70.5179 424.811 69.4405Q430.156 68.363 435.526 67.4178Q440.896 66.4726 446.288 65.6602Q451.68 64.8477 457.09 64.1686Q462.5 63.4895 467.925 62.9441Q473.351 62.3987 478.788 61.9874Q484.225 61.576 489.67 61.299Q495.116 61.0219 500.566 60.8794Q506.017 60.7368 511.47 60.7288Q516.922 60.7207 522.373 60.8473Q527.825 60.9738 533.271 61.2349Q538.717 61.4959 544.156 61.8912Q549.594 62.2866 555.021 62.816Q560.447 63.3454 565.859 64.0086Q571.271 64.6718 576.666 65.4684Q582.06 66.2649 587.432 67.1943Q592.805 68.1238 598.153 69.1855Q603.502 70.2472 608.822 71.4406C624.578 74.861 640.099 79.7681 655.318 85.0526Q659.716 86.5715 664.081 88.1813Q668.446 89.7911 672.777 91.4912Q677.108 93.1913 681.402 94.9809Q685.697 96.7705 689.953 98.6489Q694.21 100.527 698.426 102.494Q702.643 104.46 706.818 106.513Q710.993 108.567 715.124 110.707Q719.255 112.846 723.341 115.071Q727.428 117.296 731.467 119.605Q735.506 121.915 739.496 124.307Q743.486 126.7 747.426 129.175Q751.365 131.65 755.253 134.206Q759.14 136.762 762.974 139.399Q766.807 142.035 770.585 144.751Q774.363 147.466 778.084 150.259Q781.804 153.052 785.466 155.922Q789.128 158.792 792.73 161.737Q796.332 164.683 799.871 167.702Q803.411 170.721 806.887 173.814Q810.364 176.906 813.775 180.07Q817.186 183.233 820.531 186.467Q823.876 189.701 827.153 193.004Q830.43 196.306 833.638 199.676Q836.846 203.046 839.983 206.482Q843.12 209.917 846.185 213.418Q849.251 216.918 852.242 220.481Q855.234 224.044 858.151 227.668Q861.069 231.292 863.91 234.977Q866.751 238.661 869.516 242.403Q872.28 246.145 874.966 249.944Q877.652 253.743 880.258 257.597Q882.865 261.451 885.391 265.358Q889.512 271.762 893.406 278.307Q897.3 284.852 900.962 291.53Q904.623 298.208 908.048 305.01Q911.473 311.812 914.657 318.73Q917.841 325.648 920.78 332.674Q923.719 339.7 926.409 346.825Q929.099 353.949 931.538 361.164Q933.976 368.379 936.16 375.675C940.351 389.711 943.429 403.929 947.168 418.065C940.864 424.088 937.065 433.608 932.553 441.072Q925.045 453.503 916.533 465.27C887.796 504.65 850.123 540.937 813.054 572.414C808.546 576.243 799.886 585.296 794.878 587.177C794.227 586.232 794.387 586.767 794.378 585.82C794.368 584.866 794.392 585.231 794.149 584.215Q793.972 568.376 794.053 552.537C794.105 543.42 795.424 533.059 793.126 524.159C792.239 520.723 790.795 518.519 788.254 516.042C765.532 493.885 706.876 494.369 676.491 495.041C652.042 495.583 602.8 497.522 585.031 515.536C583.382 517.207 581.738 519.177 580.994 521.439C577.798 531.151 580.133 558.333 580.032 569.93L444.49 570.01C444.674 558.171 446.666 533.592 443.604 523.082C442.825 520.41 441.461 518.102 439.502 516.127C420.607 497.082 357.983 493.19 332.089 493.598C307.709 493.982 254.056 497.992 236.673 515.609C233.576 518.747 231.968 522.272 231.096 526.553C229.396 534.901 230.413 544.012 230.487 552.491C230.605 565.965 230.746 579.509 230.47 592.979C225.859 591.676 213.616 578.556 209.287 574.782C174.628 544.568 140.585 509.534 113.674 472.151C106.765 462.555 99.7494 453.028 93.3475 443.08C87.9371 434.672 83.5016 425.391 76.8314 417.89ZM375.076 149.143C367.985 150.354 364.79 154.594 360.844 160.167C349.628 176.008 338.82 192.111 327.468 207.865C319.749 218.577 310.272 229.956 303.662 241.266C302.007 244.097 299.851 247.875 300.411 251.243C301.116 255.479 304.433 259.192 307.152 262.342C317.408 274.224 328.612 285.391 339.18 297.011L424.586 390.827Q453.962 423.726 483.95 456.068C490.162 462.824 499.787 475.646 507.037 480.196C509.303 481.618 511.758 482.131 514.373 482.476C526.478 475.93 544.339 452.649 554.022 441.906C562.841 432.121 572.099 422.682 580.67 412.682L673.321 310.225C681.167 301.531 721.813 258.216 724.521 251.467C724.263 247.912 722.679 245.095 720.815 242.142C712.555 229.062 702.231 216.881 693.287 204.201Q683.384 190.201 673.681 176.063C668.079 167.779 662.534 156.854 655.083 150.26C654.874 150.074 654.657 149.897 654.445 149.716C644.141 148.116 633.036 148.932 622.601 148.985C604.173 149.078 585.766 149.347 567.336 149.223L439.024 149.024L399.494 148.985C391.401 148.951 383.155 148.622 375.076 149.143Z"/>
	<path fill="#103D68" transform="scale(0.488281 0.488281)" d="M514.373 482.476C511.758 482.131 509.303 481.618 507.037 480.196C499.787 475.646 490.162 462.824 483.95 456.068Q453.962 423.726 424.586 390.827L339.18 297.011C328.612 285.391 317.408 274.224 307.152 262.342C304.433 259.192 301.116 255.479 300.411 251.243C299.851 247.875 302.007 244.097 303.662 241.266C310.272 229.956 319.749 218.577 327.468 207.865C338.82 192.111 349.628 176.008 360.844 160.167C364.79 154.594 367.985 150.354 375.076 149.143C383.155 148.622 391.401 148.951 399.494 148.985L439.024 149.024L567.336 149.223C585.766 149.347 604.173 149.078 622.601 148.985C633.036 148.932 644.141 148.116 654.445 149.716C654.657 149.897 654.874 150.074 655.083 150.26C662.534 156.854 668.079 167.779 673.681 176.063Q683.384 190.201 693.287 204.201C702.231 216.881 712.555 229.062 720.815 242.142C722.679 245.095 724.263 247.912 724.521 251.467C721.813 258.216 681.167 301.531 673.321 310.225L580.67 412.682C572.099 422.682 562.841 432.121 554.022 441.906C544.339 452.649 526.478 475.93 514.373 482.476ZM389.793 164.565C406.001 188.8 425.112 211.098 441.252 235.367Q452.939 219.892 465.053 204.75Q480.967 185.336 495.26 164.699L389.793 164.565ZM551.924 164.747Q540.449 164.941 528.972 164.945Q545.738 186.115 562.055 207.632C569.018 216.716 575.874 226.068 583.346 234.736Q588.903 226.576 594.844 218.691Q614.841 192.009 633.78 164.565L551.924 164.747ZM649.557 169.827C632.34 194.794 614.058 218.964 596.919 243.983L649.25 244.008Q675.276 244.147 701.302 243.97L664.926 191.991C659.785 184.64 655.774 176.376 649.557 169.827ZM374.212 170.493C367.748 177.453 362.684 186.342 357.128 194.07Q339.371 219.265 320.928 243.961L375.25 243.992Q401.551 244.073 427.846 243.473Q409.255 217.372 390.074 191.701C385.041 184.876 380.271 176.323 374.212 170.493ZM512.462 170.871C502.661 180.521 494.969 191.832 486.578 202.664Q470.284 223.398 453.783 243.968L512.75 243.991C531.939 243.956 551.164 244.183 570.348 243.869C562.149 233.012 520.207 175.975 512.462 170.871ZM357.387 259.25L327.309 259.392C340.787 276.659 356.755 292.433 371.518 308.631L443.872 388.661C455.95 401.969 468.604 414.799 480.299 428.449C485.292 433.802 490.219 439.37 495.869 444.047L458.635 328.946C450.984 305.696 442.59 282.474 435.657 259.011L357.387 259.25ZM478.311 259.267Q465.188 259.452 452.063 259.382C467.232 302.801 480.792 346.629 495.104 390.325C498.041 399.292 501.165 408.203 504.012 417.198C506.763 425.889 509.189 434.773 512.551 443.251C515.257 434.687 518.287 425.913 520.395 417.183L550.415 324.12C557.616 302.38 565.553 280.882 572.425 259.035C541.123 258.933 509.588 258.234 478.311 259.267ZM607.324 259.25L589.05 259.355Q568.523 320.104 549.053 381.202Q542.432 401.815 536.093 422.517C533.77 430.029 531.231 437.453 529.275 445.075C544.584 429.755 558.464 413.075 573.064 397.087L651.927 309.732C667.165 292.882 682.617 276.241 697.43 259.01L607.324 259.25Z"/>
	<path fill="#E35D7C" transform="scale(0.488281 0.488281)" d="M441.252 235.367C425.112 211.098 406.001 188.8 389.793 164.565L495.26 164.699Q480.967 185.336 465.053 204.75Q452.939 219.892 441.252 235.367ZM417.344 178.164C419.845 186.358 436.762 205.075 442.765 211.691Q448.204 204.947 453.394 198.01C458.56 191.489 463.721 184.971 468.313 178.025C451.348 178.017 434.299 177.655 417.344 178.164Z"/>
	<path fill="#E35D7C" transform="scale(0.488281 0.488281)" d="M528.972 164.945Q540.449 164.941 551.924 164.747L633.78 164.565Q614.841 192.008 594.844 218.691Q588.903 226.576 583.346 234.736C575.874 226.068 569.018 216.716 562.055 207.632Q545.738 186.115 528.972 164.945ZM556.521 178.476C564.778 190.009 573.794 201.058 582.387 212.346Q587.624 205.15 592.655 197.809L606.393 178.492L556.521 178.476Z"/>
	<path fill="#E35D7C" transform="scale(0.488281 0.488281)" d="M596.919 243.983C614.058 218.964 632.34 194.794 649.557 169.827C655.774 176.376 659.785 184.64 664.926 191.991L701.302 243.97Q675.276 244.147 649.25 244.008L596.919 243.983ZM649.173 193.313C640.332 205.106 631.235 217.803 623.751 230.514L650.25 230.508L675.064 230.495C669.656 223.256 664.554 215.891 659.562 208.364C656.307 203.457 653.135 197.62 649.173 193.313Z"/>
	<path fill="#E35D7C" transform="scale(0.488281 0.488281)" d="M320.928 243.961Q339.371 219.265 357.128 194.07C362.684 186.342 367.748 177.453 374.212 170.493C380.271 176.323 385.041 184.876 390.074 191.701Q409.255 217.372 427.846 243.473Q401.551 244.073 375.25 243.992L320.928 243.961ZM373.424 194.328C365.426 206.636 356.689 218.458 348.313 230.509L376.25 230.508Q388.38 230.522 400.508 230.686C393.932 219.694 383.165 202.337 373.424 194.328Z"/>
	<path fill="#E35D7C" transform="scale(0.488281 0.488281)" d="M453.783 243.968Q470.284 223.398 486.578 202.664C494.969 191.832 502.661 180.521 512.462 170.871C520.207 175.975 562.149 233.012 570.348 243.869C551.164 244.183 531.939 243.956 512.75 243.991L453.783 243.968ZM512.286 191.37Q498.126 211.409 482.082 229.975L513.75 230.009Q528.343 230.038 542.934 229.842Q533.323 218.915 524.538 207.315C520.569 202.08 516.837 196.087 512.286 191.37Z"/>
	<path fill="#C43361" transform="scale(0.488281 0.488281)" d="M442.765 211.691C436.762 205.075 419.845 186.358 417.344 178.164C434.299 177.655 451.348 178.017 468.313 178.025C463.721 184.971 458.56 191.489 453.394 198.01Q448.204 204.947 442.765 211.691Z"/>
	<path fill="#C43361" transform="scale(0.488281 0.488281)" d="M582.387 212.346C573.794 201.058 564.778 190.009 556.521 178.476L606.393 178.492L592.655 197.809Q587.624 205.15 582.387 212.346Z"/>
	<path fill="#C43361" transform="scale(0.488281 0.488281)" d="M482.082 229.975Q498.126 211.409 512.286 191.37C516.837 196.087 520.569 202.08 524.538 207.315Q533.323 218.915 542.934 229.842Q528.343 230.038 513.75 230.009L482.082 229.975Z"/>
	<path fill="#C43361" transform="scale(0.488281 0.488281)" d="M623.751 230.514C631.235 217.803 640.332 205.106 649.173 193.313C653.135 197.62 656.307 203.457 659.562 208.364C664.554 215.891 669.656 223.256 675.064 230.495L650.25 230.508L623.751 230.514Z"/>
	<path fill="#C43361" transform="scale(0.488281 0.488281)" d="M348.313 230.509C356.689 218.458 365.426 206.636 373.424 194.328C383.165 202.337 393.932 219.694 400.508 230.686Q388.38 230.522 376.25 230.508L348.313 230.509Z"/>
	<path fill="#E35D7C" transform="scale(0.488281 0.488281)" d="M327.309 259.392L357.387 259.25L435.657 259.011C442.59 282.474 450.984 305.696 458.635 328.946L495.869 444.047C490.219 439.37 485.292 433.802 480.299 428.449C468.604 414.799 455.95 401.969 443.872 388.661L371.518 308.631C356.755 292.433 340.787 276.659 327.309 259.392ZM363.4 273.238C361.883 273.292 360.135 273.116 358.811 273.941C366.223 283.504 375.197 292.392 383.34 301.38Q410.703 331.44 437.729 361.801C446.454 371.513 455.596 380.399 463.715 390.692L465.03 392.24C465.555 387.317 451.861 352.663 449.389 345.447L436.056 305.947C432.383 295.006 428.564 284.228 425.864 272.991C405.115 273 384.123 272.369 363.4 273.238Z"/>
	<path fill="#E35D7C" transform="scale(0.488281 0.488281)" d="M452.063 259.382Q465.188 259.452 478.311 259.267C509.588 258.234 541.123 258.933 572.425 259.035C565.553 280.882 557.616 302.38 550.415 324.12L520.395 417.183C518.287 425.913 515.257 434.687 512.551 443.251C509.189 434.773 506.763 425.889 504.012 417.198C501.165 408.203 498.041 399.292 495.104 390.325C480.792 346.629 467.232 302.801 452.063 259.382ZM504.204 273.263Q488.102 273.529 471.999 273.469Q485.14 311.791 496.974 350.536C501.845 366.234 505.744 383.011 512.547 397.999L514.07 392.33C525.842 352.521 539.765 313.371 552 273.721C536.07 273.268 520.14 272.79 504.204 273.263Z"/>
	<path fill="#E35D7C" transform="scale(0.488281 0.488281)" d="M589.05 259.355L607.324 259.25L697.43 259.01C682.617 276.241 667.165 292.882 651.927 309.732L573.064 397.087C558.464 413.075 544.584 429.755 529.275 445.075C531.231 437.453 533.77 430.029 536.093 422.517Q542.432 401.815 549.053 381.202Q568.523 320.105 589.05 259.355ZM598.795 272.93Q589.682 302.13 579.876 331.104C573.384 350.482 566.547 369.856 560.986 389.525C572.061 377.552 582.757 365.217 593.887 353.3Q629.386 312.891 665.999 273.489L624.534 273.474C616.19 273.504 607.037 274.293 598.795 272.93Z"/>
	<path fill="#C43361" transform="scale(0.488281 0.488281)" d="M463.715 390.692C455.596 380.399 446.454 371.513 437.729 361.801Q410.703 331.44 383.34 301.38C375.197 292.392 366.223 283.504 358.811 273.941C360.135 273.116 361.883 273.292 363.4 273.238C384.123 272.369 405.115 273 425.864 272.991C428.564 284.228 432.383 295.006 436.056 305.947L449.389 345.447C451.861 352.663 465.555 387.317 465.03 392.24L463.715 390.692Z"/>
	<path fill="#C43361" transform="scale(0.488281 0.488281)" d="M471.999 273.469Q488.102 273.529 504.204 273.263C520.14 272.79 536.07 273.268 552 273.721C539.765 313.371 525.842 352.521 514.07 392.33L512.547 397.999C505.744 383.011 501.845 366.234 496.974 350.536Q485.14 311.791 471.999 273.469Z"/>
	<path fill="#C43361" transform="scale(0.488281 0.488281)" d="M560.986 389.525C566.547 369.856 573.384 350.482 579.876 331.104Q589.682 302.13 598.795 272.93C607.037 274.293 616.19 273.504 624.534 273.474L665.999 273.489Q629.386 312.891 593.887 353.3C582.757 365.217 572.061 377.552 560.986 389.525Z"/>
	<path fill="#C1D3E6" transform="scale(0.488281 0.488281)" d="M76.8314 417.89C83.5016 425.391 87.9371 434.672 93.3475 443.08C99.7494 453.028 106.765 462.555 113.674 472.151C140.585 509.534 174.628 544.568 209.287 574.782C213.616 578.556 225.859 591.676 230.47 592.979C230.983 609.168 230.533 625.515 230.541 641.72L230.595 737.186L230.569 768.477C230.513 775.411 229.839 782.924 230.899 789.782C231.805 795.644 234.412 798.78 239.209 802.176C247.35 807.941 257.315 810.54 266.874 812.85C307.778 822.735 357.107 822.33 398.494 815.134C415.062 812.254 434.078 809.194 444.39 794.538C444.658 785.722 444.946 776.933 444.982 768.111L580.084 767.982C579.966 777.432 577.669 793.038 584.68 800.194C601.513 817.376 658.109 819.356 681.411 819.627C707.321 819.928 770.183 818.711 788.837 799.765C792.22 796.329 793.451 793.257 794.05 788.61C795.103 780.432 794.502 771.819 794.495 763.573L794.484 720.446C794.493 675.025 795.145 629.633 794.149 584.215C794.392 585.231 794.368 584.866 794.378 585.82C794.387 586.767 794.227 586.232 794.878 587.177C799.886 585.296 808.546 576.243 813.054 572.414C850.123 540.937 887.796 504.65 916.533 465.27Q925.045 453.503 932.553 441.072C937.065 433.608 940.864 424.088 947.168 418.065C949.366 432.08 951.869 446.026 953.425 460.136Q954.242 467.56 954.806 475.007Q955.37 482.455 955.682 489.917Q955.993 497.379 956.051 504.848Q956.109 512.316 955.914 519.782Q955.718 527.249 955.27 534.704Q954.821 542.159 954.12 549.595Q953.419 557.031 952.466 564.438Q951.513 571.846 950.309 579.217Q949.386 584.612 948.332 589.983Q947.278 595.354 946.093 600.698Q944.907 606.042 943.592 611.355Q942.277 616.668 940.832 621.948Q939.387 627.227 937.814 632.47Q936.241 637.713 934.54 642.915Q932.839 648.118 931.011 653.277Q929.184 658.437 927.231 663.55Q925.278 668.664 923.201 673.728Q921.124 678.792 918.923 683.804Q916.723 688.815 914.401 693.772Q912.079 698.729 909.636 703.627Q907.194 708.525 904.632 713.363Q902.071 718.2 899.392 722.973Q896.713 727.746 893.918 732.453Q891.124 737.159 888.215 741.796Q885.306 746.433 882.285 750.997Q879.264 755.561 876.132 760.05Q873 764.539 869.76 768.951Q866.519 773.362 863.172 777.693Q859.824 782.024 856.372 786.271Q852.92 790.519 849.365 794.681Q845.811 798.843 842.155 802.917Q838.5 806.991 834.746 810.975Q830.992 814.958 827.142 818.849Q823.292 822.74 819.348 826.535Q815.404 830.331 811.368 834.029Q807.333 837.727 803.208 841.325Q799.084 844.923 794.872 848.42Q790.661 851.916 786.366 855.309Q782.07 858.701 777.693 861.988Q773.316 865.274 768.86 868.453Q764.468 871.629 759.999 874.695Q755.53 877.762 750.986 880.716Q746.442 883.671 741.826 886.512Q737.21 889.353 732.526 892.078Q727.841 894.804 723.09 897.412Q718.339 900.021 713.524 902.51Q708.71 905 703.836 907.37Q698.961 909.74 694.029 911.988Q689.098 914.236 684.112 916.361Q679.125 918.486 674.088 920.487Q669.051 922.488 663.966 924.363Q658.881 926.238 653.75 927.987Q648.62 929.735 643.448 931.356Q638.276 932.977 633.066 934.469Q627.855 935.96 622.609 937.323Q617.363 938.685 612.085 939.917Q606.807 941.149 601.5 942.249Q596.193 943.349 590.86 944.318Q585.527 945.286 580.172 946.122Q574.817 946.958 569.443 947.661Q564.068 948.364 558.678 948.934Q553.288 949.503 547.886 949.938Q542.484 950.374 537.072 950.675Q531.66 950.977 526.243 951.144Q520.825 951.311 515.406 951.344Q509.986 951.376 504.567 951.275Q499.148 951.173 493.733 950.937Q488.318 950.7 482.911 950.33Q477.503 949.96 472.107 949.455Q466.71 948.951 461.328 948.313Q455.946 947.675 450.581 946.903Q445.216 946.132 439.872 945.228C320.663 925.279 217.398 857.272 147.625 759.367Q145.163 755.895 142.77 752.376Q140.376 748.856 138.053 745.29Q135.729 741.724 133.477 738.112Q131.224 734.501 129.043 730.846Q126.861 727.191 124.753 723.494Q122.644 719.797 120.608 716.059Q118.573 712.321 116.611 708.544Q114.649 704.767 112.763 700.951Q110.876 697.136 109.065 693.285Q107.253 689.433 105.518 685.546Q103.783 681.66 102.125 677.74Q100.467 673.82 98.8859 669.868Q97.3053 665.916 95.8027 661.934Q94.3002 657.952 92.8763 653.941Q91.4525 649.93 90.108 645.891Q88.7634 641.853 87.4986 637.789Q86.2339 633.725 85.0494 629.637Q83.865 625.549 82.7612 621.438Q81.6575 617.327 80.635 613.196Q79.6124 609.064 78.6714 604.913Q77.7305 600.762 76.8714 596.594Q76.0124 592.425 75.2356 588.24Q74.4588 584.055 73.7646 579.856Q73.0704 575.657 72.459 571.445Q71.8477 567.233 71.3194 563.009Q70.7911 558.786 70.3461 554.553Q69.9011 550.32 69.5395 546.079Q69.178 541.838 68.9 537.591Q68.622 533.344 68.4278 529.092Q68.2335 524.84 68.123 520.585Q68.0126 516.33 67.9859 512.074Q67.9592 507.818 68.0164 503.562C68.4459 474.697 72.0428 446.311 76.8314 417.89Z"/>
	<path fill="#103D68" transform="scale(0.488281 0.488281)" d="M580.032 569.93C580.133 558.333 577.798 531.151 580.994 521.439C581.738 519.177 583.382 517.207 585.031 515.536C602.8 497.522 652.042 495.583 676.491 495.041C706.876 494.369 765.532 493.885 788.254 516.042C790.795 518.519 792.239 520.723 793.126 524.159C795.424 533.059 794.105 543.42 794.053 552.537Q793.972 568.377 794.149 584.215C795.145 629.633 794.493 675.025 794.484 720.446L794.495 763.573C794.502 771.819 795.103 780.432 794.05 788.61C793.451 793.257 792.22 796.329 788.837 799.765C770.183 818.711 707.321 819.928 681.411 819.627C658.109 819.356 601.513 817.376 584.68 800.194C577.669 793.038 579.966 777.432 580.084 767.982L444.982 768.111C444.946 776.933 444.658 785.722 444.39 794.538C434.078 809.194 415.062 812.254 398.494 815.134C357.107 822.33 307.778 822.735 266.874 812.85C257.315 810.54 247.35 807.941 239.209 802.176C234.412 798.78 231.805 795.644 230.899 789.782C229.839 782.924 230.513 775.411 230.569 768.477L230.595 737.186L230.541 641.72C230.533 625.515 230.983 609.168 230.47 592.979C230.746 579.509 230.605 565.965 230.487 552.491C230.413 544.012 229.396 534.901 231.096 526.553C231.968 522.272 233.576 518.747 236.673 515.609C254.056 497.992 307.709 493.982 332.089 493.598C357.983 493.19 420.607 497.082 439.502 516.127C441.461 518.102 442.825 520.41 443.604 523.082C446.666 533.592 444.674 558.171 444.49 570.01L580.032 569.93ZM579.936 696.915Q580.053 687.951 580.017 678.986C535.065 678.835 489.81 677.341 444.9 679.535C444.687 687.715 444.297 695.949 444.669 704.125C444.698 711.108 444.26 718.107 444.189 725.093C444.103 733.579 444.416 742.109 444.552 750.597L579.991 750.649L579.936 696.915ZM319.652 511.25C306.168 512.127 258.205 517.067 249.292 526.11C248.286 527.131 248.242 527.715 248.23 529.099C250.587 533.134 260.982 535.87 265.422 537.055C295.039 544.961 325.363 545.651 355.803 544.942C380.099 543.093 405.875 541.445 427.325 528.739C406.153 512.536 345.975 509.508 319.652 511.25ZM682.429 511.733C658.46 512.41 632.562 512.642 609.839 521.099C606.883 522.199 602.838 523.574 600.711 525.968C600.032 526.732 600.083 527.039 599.875 527.995C601.062 530.959 605.541 532.693 608.334 533.899C628.542 542.629 671.852 544.556 693.955 544.359C709.972 543.995 762.945 542.376 773.682 530.743C774.661 529.681 774.987 528.729 775.128 527.298C774.5 524.901 772.821 523.859 770.745 522.693C753.278 512.879 702.709 510.986 682.429 511.733ZM426.422 548.57C370.18 568.204 303.832 568.162 247.523 548.701Q246.499 582.89 247.525 617.078C255.403 620.281 264.231 621.557 272.555 623.208C319.207 632.46 382.707 633.503 427.383 615.641C427.363 607.04 427.997 551.192 426.422 548.57ZM597.561 548.25L597.516 617.136C608.836 620.772 620.095 623.857 631.833 625.816C672.704 632.637 738.799 632.875 776.852 615.91C777.801 607.071 777.021 597.446 776.967 588.53C776.894 576.378 777.458 559.746 776.055 547.961C733.739 567.97 644.929 565.123 601.259 549.632Q599.399 548.971 597.561 548.25ZM444.938 587.496Q443.92 624.497 444.999 661.495L580.017 661.509L580.025 587.499L444.938 587.496ZM247.58 635.014C246.926 657.84 247.318 680.849 248.008 703.67C258.845 706.694 269.638 709.707 280.747 711.583C324.784 719.016 383.942 717.825 426.606 703.507C427.603 694.495 427.375 685.263 427.379 676.206Q427.395 655.567 426.992 634.932Q422.637 636.09 418.255 637.137Q413.872 638.184 409.464 639.119Q405.056 640.053 400.626 640.875Q396.196 641.697 391.746 642.405Q387.296 643.114 382.829 643.709Q378.363 644.303 373.883 644.784Q369.402 645.264 364.911 645.63Q360.42 645.996 355.922 646.248Q351.423 646.499 346.919 646.635Q342.415 646.772 337.909 646.793Q333.403 646.814 328.898 646.721Q324.393 646.627 319.892 646.418Q315.391 646.21 310.897 645.886Q306.402 645.563 301.918 645.125Q297.433 644.687 292.961 644.135Q288.489 643.582 284.033 642.916C271.744 640.98 259.65 637.991 247.58 635.014ZM775.821 635.091C725.179 651.613 648.752 650.782 597.886 635.595L597.829 677.722C597.788 684.746 597.188 691.908 597.647 698.908C597.732 700.199 597.786 702.431 598.729 703.349C599.273 703.879 599.026 703.706 599.6 703.994C610.93 707.483 622.225 710.507 633.951 712.347C670.258 718.042 743.63 720.008 776.66 702.727C776.62 693.93 778.137 640.618 775.821 635.091ZM426.038 721.555C373.129 738.637 301.054 736.415 247.713 722.022C247.476 731.451 245.353 782.772 248.491 787.746C249.378 788.379 250.227 788.984 251.178 789.519C294.422 804.631 341.889 805.925 386.925 799.308C398.843 797.556 411.786 795.654 422.726 790.448C424.257 789.719 425.714 788.831 427.156 787.942Q427.431 763.147 427.223 738.351C427.179 733.376 427.909 726.512 426.715 721.78L426.063 722.302L426.63 721.598L426.076 722.032L426.201 721.647L426.038 721.555ZM597.695 721.507L597.472 763.513C597.417 772.126 596.892 781.024 597.883 789.584C636.266 807.076 729.28 806.97 768.431 792.348C771.022 791.38 773.487 790.238 775.739 788.616C778.442 775.886 776.7 758.284 776.679 745.119C776.666 737.174 777.65 728.871 776.359 721.024C739.119 736.298 671.81 735.63 632.423 729.612C620.588 727.804 609.15 724.957 597.695 721.507Z"/>
	<path fill="#F6F7F8" transform="scale(0.488281 0.488281)" d="M355.803 544.942C325.363 545.651 295.039 544.961 265.422 537.055C260.982 535.87 250.587 533.134 248.23 529.099C248.242 527.715 248.286 527.131 249.292 526.11C258.205 517.067 306.168 512.127 319.652 511.25C345.975 509.508 406.153 512.536 427.325 528.739C405.875 541.445 380.099 543.093 355.803 544.942Z"/>
	<path fill="#F6F7F8" transform="scale(0.488281 0.488281)" d="M693.955 544.359C671.852 544.556 628.542 542.629 608.334 533.899C605.541 532.693 601.062 530.959 599.875 527.995C600.083 527.039 600.032 526.732 600.711 525.968C602.838 523.574 606.883 522.199 609.839 521.099C632.562 512.642 658.46 512.41 682.429 511.733C702.709 510.986 753.278 512.879 770.745 522.693C772.821 523.859 774.5 524.901 775.128 527.298C774.987 528.729 774.661 529.681 773.682 530.743C762.945 542.376 709.972 543.995 693.955 544.359Z"/>
	<path fill="#F6F7F8" transform="scale(0.488281 0.488281)" d="M247.523 548.701C303.832 568.162 370.18 568.204 426.422 548.57C427.997 551.192 427.363 607.04 427.383 615.641C382.707 633.503 319.207 632.46 272.555 623.208C264.231 621.557 255.403 620.281 247.525 617.078Q246.499 582.889 247.523 548.701ZM273.247 576.577C268.827 578.737 265.568 581.091 264.002 586.036C262.808 589.809 263.257 594.172 265.091 597.666Q265.389 598.249 265.747 598.797Q266.105 599.345 266.518 599.852Q266.932 600.36 267.396 600.821Q267.86 601.283 268.37 601.693Q268.88 602.104 269.43 602.458Q269.98 602.813 270.564 603.108Q271.148 603.403 271.76 603.636Q272.372 603.868 273.005 604.035C275.601 604.744 277.942 604.512 280.549 604.025C284.634 602.069 287.693 599.793 289.361 595.417Q289.608 594.753 289.788 594.068Q289.967 593.383 290.076 592.683Q290.185 591.984 290.224 591.277Q290.262 590.569 290.229 589.862Q290.195 589.155 290.091 588.454Q289.987 587.754 289.812 587.067Q289.638 586.381 289.395 585.716Q289.152 585.05 288.844 584.413Q288.525 583.758 288.141 583.138Q287.757 582.518 287.312 581.941Q286.866 581.364 286.365 580.835Q285.863 580.306 285.31 579.831Q284.758 579.356 284.159 578.94Q283.561 578.523 282.923 578.17Q282.286 577.817 281.615 577.53Q280.945 577.244 280.249 577.027C277.909 576.278 275.661 576.372 273.247 576.577ZM394.045 576.52C389.743 578.511 386.607 580.764 384.818 585.323C383.297 589.197 383.56 593.791 385.358 597.525Q385.634 598.105 385.966 598.655Q386.298 599.205 386.683 599.72Q387.068 600.234 387.502 600.707Q387.937 601.18 388.416 601.608Q388.896 602.035 389.415 602.413Q389.935 602.791 390.49 603.115Q391.045 603.439 391.629 603.706Q392.213 603.973 392.821 604.181C395.639 605.145 398.038 604.892 400.916 604.391C404.863 602.787 408.164 600.472 409.867 596.417Q410.14 595.749 410.346 595.058Q410.552 594.367 410.689 593.659Q410.826 592.951 410.893 592.233Q410.96 591.515 410.957 590.794Q410.953 590.072 410.878 589.355Q410.803 588.638 410.659 587.931Q410.514 587.224 410.3 586.536Q410.087 585.847 409.807 585.182Q409.528 584.513 409.182 583.876Q408.837 583.239 408.428 582.64Q408.02 582.041 407.553 581.487Q407.086 580.932 406.565 580.428Q406.045 579.924 405.476 579.475Q404.907 579.026 404.295 578.637Q403.683 578.248 403.035 577.923Q402.388 577.598 401.71 577.34C399.181 576.37 396.711 576.423 394.045 576.52Z"/>
	<path fill="#F6F7F8" transform="scale(0.488281 0.488281)" d="M597.516 617.136L597.561 548.25Q599.399 548.971 601.259 549.632C644.929 565.123 733.739 567.97 776.055 547.961C777.458 559.746 776.894 576.378 776.967 588.53C777.021 597.446 777.801 607.071 776.852 615.91C738.799 632.875 672.704 632.637 631.833 625.816C620.095 623.857 608.836 620.772 597.516 617.136ZM745.294 576.567C740.889 577.92 737.389 579.636 735.071 583.813C733.246 587.101 733.001 591.171 734.095 594.736Q734.31 595.442 734.596 596.123Q734.883 596.803 735.238 597.45Q735.593 598.097 736.013 598.704Q736.433 599.311 736.913 599.872Q737.394 600.432 737.929 600.94Q738.465 601.448 739.05 601.898Q739.635 602.348 740.264 602.735Q740.892 603.123 741.557 603.443Q743.007 604.159 744.572 604.567Q746.137 604.974 747.752 605.056C752.095 603.764 755.525 601.747 757.785 597.669Q758.158 596.997 758.459 596.289Q758.761 595.581 758.987 594.846Q759.213 594.111 759.362 593.357Q759.51 592.602 759.58 591.836Q759.649 591.071 759.639 590.302Q759.628 589.533 759.538 588.769Q759.448 588.005 759.279 587.255Q759.11 586.505 758.864 585.776Q758.652 585.151 758.38 584.55Q758.108 583.949 757.779 583.378Q757.449 582.807 757.064 582.271Q756.68 581.734 756.245 581.239Q755.809 580.743 755.327 580.293Q754.845 579.842 754.321 579.442Q753.797 579.041 753.236 578.694Q752.675 578.346 752.083 578.056C749.994 577.034 747.586 576.755 745.294 576.567ZM623.532 578.065C619.377 579.886 616.249 582.102 614.552 586.486Q614.279 587.209 614.082 587.956Q613.885 588.703 613.767 589.466Q613.649 590.229 613.61 591.001Q613.571 591.773 613.613 592.544Q613.655 593.315 613.776 594.078Q613.897 594.841 614.097 595.587Q614.296 596.334 614.572 597.055Q614.848 597.777 615.197 598.466Q615.523 599.097 615.912 599.691Q616.301 600.286 616.749 600.837Q617.196 601.389 617.698 601.892Q618.199 602.395 618.749 602.845Q619.299 603.294 619.892 603.685Q620.485 604.076 621.115 604.405Q621.745 604.734 622.405 604.996Q623.065 605.259 623.748 605.453C625.997 606.086 628.276 606.059 630.587 605.951C634.975 603.74 638.317 600.836 639.823 596.001Q640.046 595.297 640.199 594.574Q640.351 593.851 640.432 593.116Q640.512 592.382 640.519 591.643Q640.526 590.904 640.46 590.168Q640.394 589.432 640.256 588.707Q640.117 587.981 639.908 587.272Q639.698 586.564 639.42 585.88Q639.141 585.195 638.796 584.542Q638.485 583.976 638.12 583.444Q637.755 582.912 637.338 582.419Q636.922 581.925 636.459 581.475Q635.995 581.026 635.49 580.624Q634.984 580.223 634.442 579.873Q633.899 579.524 633.324 579.23Q632.75 578.936 632.148 578.7Q631.547 578.465 630.926 578.29C628.578 577.637 625.934 577.854 623.532 578.065Z"/>
	<path fill="#103D68" transform="scale(0.488281 0.488281)" d="M280.549 604.025C277.942 604.512 275.601 604.744 273.005 604.035Q272.372 603.868 271.76 603.636Q271.148 603.403 270.564 603.108Q269.98 602.813 269.43 602.458Q268.88 602.104 268.37 601.693Q267.86 601.283 267.396 600.821Q266.932 600.36 266.518 599.852Q266.105 599.345 265.747 598.797Q265.389 598.249 265.091 597.666C263.257 594.172 262.808 589.809 264.002 586.036C265.568 581.091 268.827 578.737 273.247 576.577C275.661 576.372 277.909 576.278 280.249 577.027Q280.945 577.244 281.615 577.53Q282.286 577.817 282.923 578.17Q283.561 578.523 284.159 578.94Q284.758 579.356 285.31 579.831Q285.863 580.306 286.365 580.835Q286.866 581.364 287.312 581.941Q287.757 582.518 288.141 583.138Q288.525 583.758 288.844 584.413Q289.152 585.05 289.395 585.716Q289.638 586.381 289.812 587.067Q289.987 587.754 290.091 588.454Q290.195 589.155 290.229 589.862Q290.262 590.569 290.224 591.277Q290.185 591.984 290.076 592.683Q289.967 593.383 289.788 594.068Q289.608 594.753 289.361 595.417C287.693 599.793 284.634 602.069 280.549 604.025Z"/>
	<path fill="#103D68" transform="scale(0.488281 0.488281)" d="M400.916 604.391C398.038 604.892 395.639 605.145 392.821 604.181Q392.213 603.973 391.629 603.706Q391.045 603.439 390.49 603.115Q389.935 602.791 389.415 602.413Q388.896 602.036 388.416 601.608Q387.937 601.18 387.502 600.707Q387.068 600.234 386.683 599.72Q386.298 599.205 385.966 598.655Q385.634 598.105 385.358 597.525C383.56 593.791 383.297 589.197 384.818 585.323C386.607 580.764 389.743 578.511 394.045 576.52C396.711 576.423 399.181 576.37 401.71 577.34Q402.388 577.598 403.035 577.923Q403.683 578.248 404.295 578.637Q404.907 579.026 405.476 579.475Q406.045 579.924 406.565 580.428Q407.086 580.932 407.553 581.487Q408.02 582.041 408.428 582.64Q408.837 583.239 409.182 583.876Q409.528 584.513 409.807 585.182Q410.087 585.847 410.3 586.536Q410.514 587.225 410.659 587.931Q410.803 588.638 410.878 589.355Q410.953 590.072 410.957 590.794Q410.96 591.515 410.893 592.233Q410.826 592.951 410.689 593.659Q410.552 594.367 410.346 595.058Q410.14 595.749 409.867 596.417C408.164 600.472 404.863 602.787 400.916 604.391Z"/>
	<path fill="#103D68" transform="scale(0.488281 0.488281)" d="M747.752 605.056Q746.137 604.974 744.572 604.567Q743.007 604.159 741.557 603.443Q740.892 603.123 740.264 602.735Q739.635 602.348 739.05 601.898Q738.465 601.448 737.929 600.94Q737.394 600.432 736.913 599.872Q736.433 599.311 736.013 598.704Q735.593 598.097 735.238 597.45Q734.883 596.803 734.596 596.123Q734.31 595.442 734.095 594.736C733.001 591.171 733.246 587.101 735.071 583.813C737.389 579.636 740.889 577.92 745.294 576.567C747.586 576.755 749.994 577.034 752.083 578.056Q752.675 578.346 753.236 578.694Q753.797 579.041 754.321 579.442Q754.845 579.842 755.327 580.293Q755.809 580.743 756.245 581.239Q756.68 581.734 757.064 582.271Q757.449 582.807 757.779 583.378Q758.108 583.949 758.38 584.55Q758.652 585.151 758.864 585.776Q759.11 586.505 759.279 587.255Q759.448 588.005 759.538 588.769Q759.628 589.533 759.639 590.302Q759.649 591.071 759.58 591.836Q759.51 592.602 759.362 593.357Q759.213 594.111 758.987 594.846Q758.761 595.581 758.459 596.289Q758.158 596.997 757.785 597.669C755.525 601.747 752.095 603.764 747.752 605.056Z"/>
	<path fill="#103D68" transform="scale(0.488281 0.488281)" d="M630.587 605.951C628.276 606.059 625.997 606.086 623.748 605.453Q623.065 605.259 622.405 604.996Q621.745 604.734 621.115 604.405Q620.485 604.076 619.892 603.685Q619.299 603.294 618.749 602.845Q618.199 602.395 617.698 601.892Q617.196 601.389 616.749 600.837Q616.301 600.286 615.912 599.691Q615.523 599.097 615.197 598.466Q614.848 597.777 614.572 597.055Q614.296 596.334 614.097 595.587Q613.897 594.841 613.776 594.078Q613.655 593.315 613.613 592.544Q613.571 591.772 613.61 591.001Q613.649 590.229 613.767 589.466Q613.885 588.703 614.082 587.956Q614.279 587.209 614.552 586.486C616.249 582.102 619.377 579.886 623.532 578.065C625.934 577.854 628.578 577.637 630.926 578.29Q631.547 578.465 632.148 578.7Q632.75 578.936 633.324 579.23Q633.899 579.524 634.442 579.873Q634.985 580.223 635.49 580.624Q635.996 581.026 636.459 581.475Q636.922 581.925 637.338 582.418Q637.755 582.912 638.12 583.444Q638.485 583.976 638.796 584.542Q639.141 585.195 639.42 585.88Q639.698 586.564 639.908 587.272Q640.117 587.981 640.256 588.707Q640.394 589.432 640.46 590.168Q640.526 590.904 640.519 591.643Q640.512 592.382 640.432 593.116Q640.351 593.851 640.199 594.574Q640.046 595.297 639.823 596.001C638.317 600.836 634.975 603.74 630.587 605.951Z"/>
	<path fill="#F6F7F8" transform="scale(0.488281 0.488281)" d="M444.999 661.495Q443.92 624.496 444.938 587.496L580.025 587.499L580.017 661.509L444.999 661.495Z"/>
	<path fill="#F6F7F8" transform="scale(0.488281 0.488281)" d="M248.008 703.67C247.318 680.849 246.926 657.84 247.58 635.014C259.65 637.991 271.744 640.98 284.033 642.916Q288.489 643.582 292.961 644.135Q297.433 644.687 301.918 645.125Q306.402 645.563 310.897 645.886Q315.391 646.21 319.892 646.418Q324.393 646.627 328.898 646.721Q333.403 646.814 337.909 646.793Q342.415 646.772 346.919 646.635Q351.423 646.499 355.922 646.248Q360.42 645.996 364.911 645.63Q369.402 645.264 373.883 644.784Q378.363 644.303 382.829 643.709Q387.296 643.114 391.746 642.405Q396.196 641.697 400.626 640.875Q405.056 640.053 409.464 639.119Q413.872 638.184 418.255 637.137Q422.637 636.09 426.992 634.932Q427.395 655.567 427.379 676.206C427.375 685.263 427.603 694.495 426.606 703.507C383.942 717.825 324.784 719.016 280.747 711.583C269.638 709.707 258.845 706.694 248.008 703.67ZM394.31 661.554C389.977 663.468 386.666 665.537 384.746 670.138Q384.447 670.869 384.225 671.627Q384.003 672.386 383.861 673.163Q383.719 673.94 383.658 674.727Q383.597 675.515 383.618 676.305Q383.639 677.095 383.742 677.878Q383.845 678.661 384.028 679.43Q384.211 680.198 384.473 680.943Q384.735 681.689 385.072 682.403C386.763 686 389.726 688.569 393.51 689.772C395.577 690.43 397.599 690.539 399.745 690.382C404.456 688.15 408.027 685.773 409.76 680.53Q409.993 679.813 410.155 679.076Q410.318 678.34 410.409 677.591Q410.5 676.843 410.519 676.089Q410.537 675.335 410.484 674.583Q410.43 673.831 410.304 673.088Q410.178 672.344 409.981 671.616Q409.784 670.888 409.518 670.182Q409.253 669.477 408.92 668.8C407.287 665.551 404.441 663.238 400.996 662.129C398.815 661.426 396.572 661.437 394.31 661.554ZM273.598 662.53C269.37 664.402 266.33 666.57 264.579 671.017C263.02 674.978 263.12 679.648 264.918 683.515C266.415 686.737 269.005 689.221 272.379 690.389C274.936 691.273 277.335 691.159 279.981 690.853C284.452 688.593 287.954 685.958 289.574 680.958C290.759 677.304 290.415 673.098 288.564 669.72Q288.224 669.099 287.823 668.515Q287.423 667.931 286.965 667.391Q286.508 666.85 285.999 666.358Q285.489 665.866 284.933 665.428Q284.377 664.99 283.779 664.61Q283.182 664.23 282.549 663.912Q281.916 663.594 281.255 663.342Q280.593 663.089 279.91 662.904C277.861 662.338 275.7 662.441 273.598 662.53Z"/>
	<path fill="#F6F7F8" transform="scale(0.488281 0.488281)" d="M597.886 635.595C648.752 650.782 725.179 651.613 775.821 635.091C778.137 640.618 776.62 693.93 776.66 702.727C743.63 720.008 670.258 718.042 633.951 712.347C622.225 710.507 610.93 707.483 599.6 703.994C599.026 703.706 599.273 703.879 598.729 703.349C597.786 702.431 597.732 700.199 597.647 698.908C597.188 691.908 597.788 684.746 597.829 677.722L597.886 635.595ZM624.05 663.073C619.582 665.284 616.158 667.985 614.613 672.963C613.48 676.615 613.764 680.872 615.557 684.271Q615.884 684.892 616.273 685.477Q616.662 686.062 617.109 686.603Q617.555 687.145 618.055 687.638Q618.555 688.131 619.103 688.57Q619.651 689.01 620.241 689.391Q620.831 689.771 621.456 690.09Q622.082 690.408 622.737 690.661Q623.392 690.914 624.07 691.098C626.173 691.679 628.418 691.563 630.576 691.494C634.978 689.293 638.313 686.683 639.863 681.772Q640.084 681.065 640.235 680.34Q640.387 679.615 640.468 678.879Q640.549 678.143 640.558 677.403Q640.568 676.662 640.505 675.925Q640.443 675.187 640.31 674.458Q640.177 673.73 639.974 673.018Q639.771 672.305 639.501 671.616Q639.23 670.927 638.894 670.267Q638.586 669.672 638.22 669.109Q637.855 668.547 637.437 668.023Q637.018 667.5 636.55 667.02Q636.082 666.54 635.569 666.108Q635.056 665.676 634.503 665.297Q633.95 664.918 633.363 664.595Q632.775 664.272 632.159 664.008Q631.542 663.744 630.903 663.542C628.707 662.854 626.322 662.93 624.05 663.073ZM744.249 663.087C739.936 664.472 736.665 666.285 734.621 670.528C732.875 674.153 732.955 678.571 734.49 682.253Q734.764 682.923 735.104 683.561Q735.445 684.2 735.849 684.801Q736.252 685.401 736.715 685.958Q737.178 686.514 737.695 687.021Q738.211 687.527 738.777 687.979Q739.343 688.43 739.952 688.822Q740.56 689.213 741.205 689.541Q741.851 689.869 742.526 690.129C744.836 691.018 747.001 691.048 749.438 690.897C753.742 689.056 756.844 687.061 758.72 682.507C760.223 678.856 760.175 674.485 758.61 670.863Q758.361 670.276 758.055 669.717Q757.748 669.158 757.388 668.632Q757.028 668.106 756.618 667.618Q756.207 667.131 755.75 666.686Q755.294 666.241 754.795 665.844Q754.297 665.447 753.761 665.101Q753.226 664.755 752.658 664.464Q752.091 664.173 751.498 663.94C749.161 663.017 746.726 662.92 744.249 663.087Z"/>
	<path fill="#103D68" transform="scale(0.488281 0.488281)" d="M399.745 690.382C397.599 690.539 395.577 690.43 393.51 689.772C389.726 688.569 386.763 686 385.072 682.403Q384.735 681.689 384.473 680.943Q384.211 680.198 384.028 679.43Q383.845 678.661 383.742 677.878Q383.639 677.095 383.618 676.305Q383.597 675.515 383.658 674.728Q383.719 673.94 383.861 673.163Q384.003 672.386 384.225 671.627Q384.447 670.869 384.746 670.138C386.666 665.537 389.977 663.468 394.31 661.554C396.572 661.437 398.815 661.426 400.996 662.129C404.441 663.238 407.287 665.551 408.92 668.8Q409.253 669.477 409.518 670.182Q409.784 670.888 409.981 671.616Q410.178 672.344 410.304 673.087Q410.43 673.831 410.484 674.583Q410.537 675.335 410.519 676.089Q410.5 676.843 410.409 677.591Q410.318 678.34 410.155 679.076Q409.993 679.813 409.76 680.53C408.027 685.773 404.456 688.15 399.745 690.382Z"/>
	<path fill="#103D68" transform="scale(0.488281 0.488281)" d="M279.981 690.853C277.335 691.159 274.936 691.273 272.379 690.389C269.005 689.221 266.415 686.737 264.918 683.515C263.12 679.648 263.02 674.978 264.579 671.017C266.33 666.57 269.37 664.402 273.598 662.53C275.7 662.441 277.861 662.338 279.91 662.904Q280.593 663.089 281.255 663.342Q281.916 663.594 282.549 663.912Q283.182 664.23 283.779 664.61Q284.377 664.99 284.933 665.428Q285.489 665.866 285.999 666.358Q286.508 666.85 286.965 667.391Q287.423 667.931 287.823 668.515Q288.224 669.099 288.564 669.72C290.415 673.098 290.759 677.304 289.574 680.958C287.954 685.958 284.452 688.593 279.981 690.853Z"/>
	<path fill="#103D68" transform="scale(0.488281 0.488281)" d="M630.576 691.494C628.418 691.563 626.173 691.679 624.07 691.098Q623.392 690.914 622.737 690.661Q622.082 690.408 621.456 690.09Q620.831 689.771 620.241 689.391Q619.651 689.01 619.103 688.57Q618.555 688.131 618.055 687.638Q617.555 687.145 617.109 686.603Q616.662 686.062 616.273 685.477Q615.884 684.892 615.557 684.271C613.764 680.872 613.48 676.615 614.613 672.963C616.158 667.985 619.582 665.284 624.05 663.073C626.322 662.93 628.707 662.854 630.903 663.542Q631.542 663.744 632.159 664.008Q632.775 664.272 633.363 664.595Q633.95 664.918 634.503 665.297Q635.056 665.676 635.569 666.108Q636.082 666.54 636.55 667.02Q637.018 667.5 637.437 668.023Q637.855 668.547 638.22 669.109Q638.586 669.672 638.894 670.267Q639.23 670.927 639.501 671.616Q639.771 672.305 639.974 673.018Q640.177 673.73 640.31 674.458Q640.443 675.187 640.505 675.925Q640.568 676.662 640.558 677.403Q640.549 678.143 640.468 678.879Q640.387 679.615 640.235 680.34Q640.084 681.065 639.863 681.772C638.313 686.683 634.978 689.293 630.576 691.494Z"/>
	<path fill="#103D68" transform="scale(0.488281 0.488281)" d="M749.438 690.897C747.001 691.048 744.836 691.018 742.526 690.129Q741.851 689.869 741.205 689.541Q740.56 689.213 739.952 688.822Q739.343 688.43 738.777 687.979Q738.211 687.527 737.695 687.021Q737.178 686.514 736.715 685.958Q736.252 685.401 735.849 684.801Q735.445 684.2 735.104 683.561Q734.764 682.923 734.49 682.253C732.955 678.571 732.875 674.153 734.621 670.528C736.665 666.285 739.936 664.472 744.249 663.087C746.726 662.92 749.161 663.017 751.498 663.94Q752.091 664.173 752.658 664.464Q753.226 664.755 753.761 665.101Q754.297 665.447 754.795 665.844Q755.294 666.241 755.75 666.686Q756.207 667.131 756.618 667.618Q757.028 668.106 757.388 668.632Q757.748 669.158 758.055 669.717Q758.361 670.276 758.61 670.863C760.175 674.485 760.223 678.856 758.72 682.507C756.844 687.061 753.742 689.056 749.438 690.897Z"/>
	<path fill="#F6F7F8" transform="scale(0.488281 0.488281)" d="M579.936 696.915C579.52 699.267 579.423 701.42 579.435 703.796Q568.898 706.078 558.247 707.749Q547.597 709.42 536.867 710.476Q526.138 711.531 515.366 711.968Q504.593 712.404 493.814 712.219C477.607 711.868 461.356 710.068 445.15 710.098C445.178 708.321 445.576 705.676 444.669 704.125C444.297 695.949 444.687 687.715 444.9 679.535C489.81 677.341 535.065 678.835 580.017 678.986Q580.053 687.951 579.936 696.915Z"/>
	<path fill="#C1D3E6" transform="scale(0.488281 0.488281)" d="M579.435 703.796C579.423 701.42 579.52 699.267 579.936 696.915L579.991 750.649L444.552 750.597C444.416 742.109 444.103 733.579 444.189 725.093C444.26 718.107 444.698 711.108 444.669 704.125C445.576 705.676 445.178 708.321 445.15 710.098C461.356 710.068 477.607 711.868 493.814 712.219Q504.593 712.404 515.366 711.968Q526.138 711.531 536.867 710.476Q547.597 709.42 558.247 707.749Q568.898 706.078 579.435 703.796Z"/>
	<path fill="#F6F7F8" transform="scale(0.488281 0.488281)" d="M247.713 722.022C301.054 736.415 373.129 738.637 426.038 721.555L426.201 721.647L426.076 722.032L426.63 721.598L426.063 722.302L426.715 721.78C427.909 726.512 427.179 733.376 427.223 738.351Q427.431 763.147 427.156 787.942C425.714 788.831 424.257 789.719 422.726 790.448C411.786 795.654 398.843 797.556 386.925 799.308C341.889 805.925 294.422 804.631 251.178 789.519C250.227 788.984 249.378 788.379 248.491 787.746C245.353 782.772 247.476 731.451 247.713 722.022ZM273.624 749.049C269.451 750.693 266.225 752.687 264.434 757.002C262.828 760.869 263.073 765.352 264.823 769.128Q265.126 769.789 265.497 770.415Q265.867 771.041 266.301 771.625Q266.735 772.209 267.227 772.745Q267.719 773.28 268.265 773.762Q268.811 774.243 269.403 774.664Q269.996 775.086 270.63 775.444Q271.263 775.801 271.931 776.09Q272.598 776.38 273.292 776.598C275.515 777.292 277.727 777.131 280.015 776.955C284.196 774.989 287.391 772.734 289.111 768.274Q289.372 767.579 289.563 766.861Q289.755 766.144 289.875 765.411Q289.994 764.678 290.041 763.937Q290.088 763.196 290.062 762.454Q290.036 761.712 289.937 760.976Q289.838 760.24 289.667 759.518Q289.495 758.795 289.254 758.093Q289.012 757.391 288.703 756.716Q288.425 756.113 288.089 755.54Q287.754 754.967 287.363 754.431Q286.972 753.894 286.53 753.398Q286.089 752.903 285.6 752.453Q285.112 752.003 284.581 751.604Q284.051 751.205 283.483 750.86Q282.916 750.515 282.318 750.227Q281.719 749.94 281.095 749.713C278.672 748.811 276.162 748.863 273.624 749.049ZM395.321 749.069C390.831 750.505 387.516 752.262 385.204 756.627C383.225 760.364 382.954 765.027 384.356 769.004C385.557 772.408 387.964 775.224 391.256 776.758C393.696 777.895 396.059 778.013 398.707 777.917C403.196 776.599 406.422 774.869 408.649 770.536C410.603 766.735 410.793 762.119 409.346 758.117C408.05 754.536 405.404 751.488 401.851 750.019C399.719 749.138 397.596 749.018 395.321 749.069Z"/>
	<path fill="#F6F7F8" transform="scale(0.488281 0.488281)" d="M597.883 789.584C596.892 781.024 597.417 772.126 597.472 763.513L597.695 721.507C609.15 724.957 620.588 727.804 632.423 729.612C671.81 735.63 739.119 736.298 776.359 721.024C777.65 728.871 776.666 737.174 776.679 745.119C776.7 758.284 778.442 775.886 775.739 788.616C773.487 790.238 771.022 791.38 768.431 792.348C729.28 806.97 636.266 807.076 597.883 789.584ZM746.66 748.584C741.979 749.482 738.209 750.833 735.51 755.045C733.371 758.382 732.829 762.685 733.723 766.512Q733.885 767.213 734.118 767.894Q734.35 768.576 734.65 769.23Q734.95 769.884 735.315 770.505Q735.679 771.125 736.104 771.706Q736.53 772.287 737.011 772.822Q737.493 773.356 738.026 773.84Q738.56 774.323 739.139 774.75Q739.718 775.177 740.338 775.544C742.709 776.93 745.183 777.416 747.866 777.772C752.476 776.163 755.881 774.334 758.178 769.74Q758.535 769.018 758.815 768.263Q759.096 767.508 759.296 766.728Q759.496 765.948 759.615 765.152Q759.733 764.355 759.768 763.551Q759.802 762.746 759.753 761.942Q759.704 761.138 759.572 760.344Q759.44 759.55 759.226 758.773Q759.012 757.997 758.718 757.247C757.278 753.603 754.286 750.847 750.634 749.475C749.364 748.998 747.995 748.794 746.66 748.584ZM624.498 749.045C620.302 750.908 617.064 753.297 615.346 757.717Q615.077 758.412 614.878 759.129Q614.679 759.847 614.551 760.581Q614.423 761.315 614.368 762.058Q614.313 762.801 614.332 763.545Q614.35 764.29 614.442 765.029Q614.534 765.768 614.698 766.495Q614.862 767.222 615.096 767.929Q615.331 768.636 615.634 769.316Q615.926 769.973 616.285 770.597Q616.643 771.221 617.063 771.804Q617.484 772.388 617.962 772.925Q618.44 773.463 618.97 773.948Q619.501 774.434 620.079 774.863Q620.656 775.291 621.275 775.658Q621.894 776.026 622.547 776.327Q623.2 776.629 623.88 776.862C625.996 777.58 628.25 777.569 630.457 777.494C634.904 775.318 638.392 772.749 639.956 767.796Q640.187 767.039 640.34 766.262Q640.493 765.485 640.566 764.697Q640.639 763.908 640.631 763.116Q640.624 762.325 640.535 761.538Q640.446 760.751 640.278 759.977Q640.11 759.204 639.863 758.451Q639.617 757.699 639.295 756.975Q638.973 756.252 638.579 755.565C636.82 752.564 633.839 750.224 630.453 749.354C628.542 748.862 626.453 748.95 624.498 749.045Z"/>
	<path fill="#103D68" transform="scale(0.488281 0.488281)" d="M747.866 777.772C745.183 777.416 742.709 776.93 740.338 775.544Q739.718 775.177 739.139 774.75Q738.56 774.323 738.026 773.84Q737.493 773.356 737.011 772.822Q736.53 772.287 736.104 771.706Q735.679 771.125 735.315 770.505Q734.95 769.884 734.65 769.23Q734.35 768.576 734.118 767.894Q733.885 767.213 733.723 766.512C732.829 762.685 733.371 758.382 735.51 755.045C738.209 750.833 741.979 749.482 746.66 748.584C747.995 748.794 749.364 748.998 750.634 749.475C754.286 750.847 757.278 753.603 758.718 757.247Q759.012 757.997 759.226 758.773Q759.44 759.55 759.572 760.344Q759.704 761.138 759.753 761.942Q759.802 762.746 759.768 763.551Q759.733 764.355 759.615 765.152Q759.496 765.948 759.296 766.728Q759.096 767.508 758.815 768.263Q758.535 769.018 758.178 769.74C755.881 774.334 752.476 776.163 747.866 777.772Z"/>
	<path fill="#103D68" transform="scale(0.488281 0.488281)" d="M280.015 776.955C277.727 777.131 275.515 777.292 273.292 776.598Q272.598 776.38 271.931 776.09Q271.263 775.801 270.63 775.444Q269.996 775.086 269.403 774.664Q268.81 774.243 268.265 773.762Q267.719 773.28 267.227 772.745Q266.735 772.209 266.301 771.625Q265.867 771.041 265.497 770.415Q265.126 769.789 264.823 769.128C263.073 765.352 262.828 760.869 264.434 757.002C266.225 752.687 269.451 750.693 273.624 749.049C276.162 748.863 278.672 748.811 281.095 749.713Q281.719 749.94 282.318 750.227Q282.916 750.515 283.483 750.86Q284.051 751.205 284.581 751.604Q285.112 752.003 285.6 752.453Q286.089 752.903 286.53 753.398Q286.972 753.894 287.363 754.431Q287.754 754.968 288.089 755.54Q288.425 756.113 288.703 756.716Q289.012 757.391 289.254 758.093Q289.495 758.795 289.667 759.518Q289.838 760.24 289.937 760.976Q290.036 761.712 290.062 762.454Q290.088 763.196 290.041 763.937Q289.994 764.678 289.875 765.411Q289.755 766.144 289.563 766.861Q289.372 767.579 289.111 768.274C287.391 772.734 284.196 774.989 280.015 776.955Z"/>
	<path fill="#103D68" transform="scale(0.488281 0.488281)" d="M398.707 777.917C396.059 778.013 393.696 777.895 391.256 776.758C387.964 775.224 385.557 772.408 384.356 769.004C382.954 765.027 383.225 760.364 385.204 756.627C387.516 752.262 390.831 750.505 395.321 749.069C397.596 749.018 399.719 749.138 401.851 750.019C405.404 751.488 408.05 754.536 409.346 758.117C410.793 762.119 410.603 766.735 408.649 770.536C406.422 774.869 403.196 776.599 398.707 777.917Z"/>
	<path fill="#103D68" transform="scale(0.488281 0.488281)" d="M630.457 777.494C628.25 777.569 625.996 777.58 623.88 776.862Q623.2 776.629 622.547 776.327Q621.894 776.026 621.275 775.658Q620.656 775.291 620.079 774.863Q619.501 774.434 618.97 773.948Q618.44 773.463 617.962 772.925Q617.484 772.388 617.063 771.804Q616.643 771.221 616.285 770.597Q615.926 769.973 615.634 769.316Q615.331 768.636 615.096 767.929Q614.862 767.222 614.698 766.495Q614.534 765.768 614.442 765.029Q614.35 764.29 614.332 763.545Q614.313 762.801 614.368 762.058Q614.423 761.315 614.551 760.581Q614.679 759.847 614.878 759.129Q615.077 758.412 615.346 757.717C617.064 753.297 620.302 750.908 624.498 749.045C626.453 748.95 628.542 748.862 630.453 749.354C633.839 750.224 636.82 752.564 638.579 755.565Q638.973 756.252 639.295 756.975Q639.617 757.699 639.863 758.451Q640.11 759.204 640.278 759.977Q640.446 760.751 640.535 761.538Q640.624 762.325 640.631 763.116Q640.639 763.908 640.566 764.697Q640.493 765.485 640.34 766.262Q640.187 767.039 639.956 767.796C638.392 772.749 634.904 775.318 630.457 777.494Z"/>
</svg>
